<?xml version="1.0" encoding="UTF-8"?>
<!DOCTYPE svg PUBLIC "-//W3C//DTD SVG 1.1//EN" "http://www.w3.org/Graphics/SVG/1.1/DTD/svg11.dtd">
<!-- Creator: CorelDRAW (Versão OEM) -->
<svg xmlns="http://www.w3.org/2000/svg" xml:space="preserve" width="71.3158mm" height="21.4164mm" version="1.1" style="shape-rendering:geometricPrecision; text-rendering:geometricPrecision; image-rendering:optimizeQuality; fill-rule:evenodd; clip-rule:evenodd"
viewBox="0 0 2313.62 694.79"
 xmlns:xlink="http://www.w3.org/1999/xlink"
 xmlns:xodm="http://www.corel.com/coreldraw/odm/2003">
 <defs>
  <style type="text/css">
   <![CDATA[
    .fil3 {fill:#373435}
    .fil1 {fill:#3DA2EB}
    .fil2 {fill:#373435;fill-rule:nonzero}
    .fil0 {fill:url(#id0)}
   ]]>
  </style>
  <linearGradient id="id0" gradientUnits="userSpaceOnUse" x1="-2.53" y1="568.9" x2="677.61" y2="3.05">
   <stop offset="0" style="stop-opacity:1; stop-color:#3DA2EB"/>
   <stop offset="1" style="stop-opacity:1; stop-color:#73FFB4"/>
  </linearGradient>
 </defs>
 <g id="Camada_x0020_1">
  <metadata id="CorelCorpID_0Corel-Layer"/>
  <g id="_2433981758720">
   <path class="fil0" d="M381.27 136.79l-376.12 402.75c-6.71,7.18 -6.87,18.16 -0.47,25.63 6.39,7.46 17.24,8.97 25.4,3.48l441.79 -297.48c8.68,-5.84 20.46,-3.65 26.5,4.89l20.49 29c4.12,5.83 10.58,8.78 17.68,8.07 7.1,-0.71 12.84,-4.88 15.73,-11.41l121.1 -274.62c2.91,-6.6 2.06,-13.73 -2.31,-19.47 -4.37,-5.74 -11.03,-8.45 -18.16,-7.4l-285.41 42.1c-6.83,1.01 -12.2,5.15 -14.92,11.49 -2.72,6.34 -2,13.09 1.98,18.73l28.29 40.03c5.31,7.51 4.7,17.49 -1.58,24.21z"/>
   <path class="fil1" d="M255.36 497.79l0.42 167.86c0.03,10.61 8.68,19.24 19.29,19.24l154.52 0c10.58,0 19.22,-8.58 19.29,-19.15l1.93 -272.07c0.06,-7.32 -3.67,-13.63 -10.11,-17.11 -6.44,-3.48 -13.76,-3.15 -19.85,0.9l-156.87 104.21c-5.56,3.7 -8.63,9.44 -8.62,16.12z"/>
   <path class="fil1" d="M20.01 684.89l141.74 0c10.62,0 19.29,-8.67 19.29,-19.29l0 -93.67c0,-7.29 -3.73,-13.54 -10.15,-16.99 -6.42,-3.45 -13.69,-3.12 -19.77,0.9l-141.73 93.67c-7.22,4.77 -10.33,13.36 -7.84,21.65 2.49,8.28 9.82,13.74 18.47,13.74z"/>
   <path class="fil2" d="M734.61 319.62c-80.24,0 -182.3,61.24 -182.3,187.93 0,127.4 97.84,185.82 189.34,185.82 44.34,0 83.06,-12.67 109.8,-34.49 15.48,-12.67 19,-22.52 19,-31.68 0,-15.48 -9.86,-26.75 -26.04,-26.75 -9.86,0 -17.6,4.93 -29.56,11.26 -21.82,13.38 -41.53,20.19 -70.39,20.41 -160.61,1.24 -162.05,-246.56 -9.85,-247.77 47.16,-0.37 97.84,29.56 104.17,96.43l-177.64 0 129.37 53.79 74.3 0.41c30.27,0.16 46.46,-11.26 46.46,-40.12 0,-111.92 -96.43,-175.26 -176.67,-175.26zm473.14 2.11c-14.08,0 -28.15,7.74 -35.19,25.34l-101.35 238.61 -101.36 -238.61c-7.74,-17.6 -21.12,-25.34 -35.2,-25.34 -19.71,0 -34.49,15.49 -34.49,33.78 0,7.04 2.11,11.97 4.22,16.9l129.51 290.7c8.45,17.6 19,28.16 37.31,28.16 18.3,0 28.86,-10.56 37.3,-28.16l129.51 -290.7c2.11,-4.93 4.22,-9.86 4.22,-16.9 0,-18.3 -14.78,-33.78 -34.49,-33.78zm208.49 -2.11c-80.95,0 -185.12,62.64 -185.12,187.93 0,125.99 104.17,187.23 185.12,187.23 80.95,0 185.82,-61.24 185.82,-187.23 0,-125.29 -104.88,-187.93 -185.82,-187.93zm0 64.75c54.9,0 111.91,42.94 111.91,123.18 0,79.54 -57.01,122.47 -111.91,122.47 -54.2,0 -111.21,-42.94 -111.21,-122.47 0,-80.24 57.01,-123.18 111.21,-123.18zm291.55 271.7l0 -431.47c0,-20.41 -16.9,-37.31 -37.31,-37.31 -20.41,0 -37.3,16.9 -37.3,37.31l0 431.47c0,20.41 16.89,37.3 37.3,37.3 20.41,0 37.31,-16.89 37.31,-37.3zm331.66 -334.34c-14.07,0 -28.15,7.74 -35.19,25.34l-101.36 238.61 -101.36 -238.61c-7.74,-17.6 -21.12,-25.34 -35.19,-25.34 -19.71,0 -34.49,15.49 -34.49,33.78 0,7.04 2.11,11.97 4.22,16.9l129.51 290.7c8.45,17.6 19,28.16 37.31,28.16 18.3,0 28.86,-10.56 37.3,-28.16l129.51 -290.7c2.11,-4.93 4.22,-9.86 4.22,-16.9 0,-18.3 -14.78,-33.78 -34.49,-33.78zm96.57 -66.87c20.41,0 38.01,-16.89 38.01,-37.3 0,-20.41 -17.6,-37.31 -38.01,-37.31 -20.41,0 -38.01,16.9 -38.01,37.31 0,20.41 17.6,37.3 38.01,37.3zm0 66.87c-20.41,0 -37.3,16.9 -37.3,38.01l0 296.33c0,21.12 16.89,38.01 37.3,38.01 20.41,0 37.3,-16.89 37.3,-38.01l0 -296.33c0,-21.12 -16.89,-38.01 -37.3,-38.01z"/>
   <g>
    <path class="fil3" d="M2269.3 338.44c11.63,-1.16 22.09,3.93 29.14,12.43 3.85,4.64 6.55,11.29 7.16,17.77 1.84,19.41 -12.93,34.85 -30.27,36.42 -19.42,1.76 -34.7,-12.84 -36.35,-30.24 -0.49,-5.13 0.29,-10.21 1.92,-14.62 1.92,-5.19 4.72,-9.23 8.29,-12.58 5.62,-5.28 11.88,-8.35 20.12,-9.18zm-38.28 35.13c0.33,6.08 1.82,11.64 4.19,16.41 2.97,5.97 4.84,7.78 8.82,11.86 1.47,1.51 3.8,3.33 5.77,4.57 29.02,18.32 65.21,-3.51 63.78,-36.45 -0.97,-22.24 -19.74,-40.52 -43.07,-39.49 -22.81,1.02 -40.72,20.47 -39.49,43.1z"/>
    <path class="fil3" d="M2262.99 369.97l0.01 -13.03c2.75,-0.19 8.25,-0.18 10.76,0.37 3.18,0.69 5.16,2.46 5,6.14 -0.15,3.48 -2.19,5.16 -5.19,5.93 -2.73,0.71 -7.66,0.81 -10.59,0.6zm-7.85 23.16l7.79 0.05 0.08 -16.55 5.43 -0.04c0.87,1.44 1.84,2.66 2.82,4.1l8.77 12.48 9.28 0c-0.25,-0.8 -2.42,-3.51 -3.03,-4.39 -0.97,-1.38 -9.25,-12.47 -9.5,-13.37 4.41,-1.34 7.74,-3.54 9.21,-7.42 1.8,-4.75 0.79,-10.01 -2.04,-12.96 -3.06,-3.18 -6.84,-4.18 -12.19,-4.6l-16.57 -0.07 -0.04 42.76z"/>
   </g>
  </g>
 </g>
</svg>
